<svg version="1.1" id="Layer_1" xmlns="http://www.w3.org/2000/svg" xmlns:xlink="http://www.w3.org/1999/xlink" x="0px" y="0px"
	 width="100%" viewBox="0 0 1254 1254" enable-background="new 0 0 1254 1254" xml:space="preserve">
<path fill="#010410" opacity="1.000000" stroke="none" 
	d="
M855.000000,1255.000000 
	C570.000000,1255.000000 285.500000,1255.000000 1.000000,1255.000000 
	C1.000000,837.000000 1.000000,419.000000 1.000000,1.000000 
	C419.000000,1.000000 837.000000,1.000000 1255.000000,1.000000 
	C1255.000000,419.000000 1255.000000,837.000000 1255.000000,1255.000000 
	C1121.833374,1255.000000 988.666687,1255.000000 855.000000,1255.000000 
M593.375427,591.715210 
	C586.242004,589.156677 579.108521,586.598145 571.427551,583.609802 
	C562.646362,579.011841 553.865173,574.413879 544.734375,569.255981 
	C542.310242,567.510010 539.876465,565.777283 537.463501,564.015991 
	C510.629059,544.428406 494.991180,518.974121 496.207672,484.505249 
	C496.144257,484.200378 496.080872,483.895538 496.735474,483.083374 
	C497.099365,481.702057 497.463257,480.320740 498.157379,478.280945 
	C501.295349,461.920441 509.948578,448.517944 521.281555,435.987244 
	C540.003601,418.069397 562.140686,409.314331 588.223999,410.109863 
	C603.804321,410.585022 619.415588,410.046387 635.829529,410.137512 
	C637.214600,410.079620 638.599670,410.021698 640.908081,410.150543 
	C655.941772,410.087006 670.975464,410.023438 686.931763,410.130737 
	C725.546326,410.157135 764.161011,410.139923 802.775208,410.274689 
	C806.813416,410.288757 809.614136,408.791107 812.320435,405.961243 
	C834.633972,382.628723 857.052002,359.396088 879.434204,336.129181 
	C880.932739,334.571411 882.397095,332.980774 884.314331,330.940308 
	C857.884827,330.940308 832.444885,330.940308 806.085632,330.738281 
	C799.396606,330.804626 792.707581,330.870972 785.237915,330.723358 
	C770.155029,330.797852 755.072205,330.872314 739.101501,330.743164 
	C736.071106,330.810120 733.040710,330.877106 729.232788,330.724945 
	C716.930847,330.700348 704.628845,330.626373 692.327087,330.663116 
	C675.214050,330.714264 658.101379,330.848419 640.120667,330.742096 
	C637.749939,330.810059 635.379272,330.878021 632.231323,330.726776 
	C613.632202,330.707245 595.033020,330.657501 576.434143,330.715027 
	C574.579529,330.720764 572.726868,331.379364 570.147705,331.799042 
	C569.427612,331.882111 568.707581,331.965179 567.194397,331.911652 
	C552.638428,332.132843 538.735779,335.723358 524.240479,340.106018 
	C521.039673,341.439117 517.811035,342.709473 514.642578,344.115417 
	C494.236969,353.170197 475.890808,365.151306 460.378998,382.272003 
	C449.767334,394.318665 440.131012,407.020081 433.886993,421.922882 
	C433.886993,421.922882 433.856659,421.804962 433.296814,422.217255 
	C430.980957,427.799774 428.665100,433.382294 425.963013,439.634033 
	C415.976379,466.932373 412.944977,494.889313 419.108917,523.417053 
	C424.869141,550.076538 437.498596,572.742798 460.212341,589.820679 
	C465.764587,592.980225 471.316833,596.139771 477.297943,599.853027 
	C485.144012,602.353516 492.990082,604.854004 501.423645,607.892212 
	C531.249451,608.055054 561.075256,608.217834 591.815430,608.648926 
	C616.364258,608.067017 640.913086,607.485046 665.461914,606.903076 
	C661.102417,605.661316 656.655273,605.271912 652.300659,604.413147 
	C634.849121,600.971558 617.426270,597.384399 599.643372,593.560791 
	C599.353516,593.377136 599.063843,593.377380 598.304565,593.085510 
	C597.868591,593.045410 597.432617,593.005310 596.702942,592.770691 
	C596.702942,592.770691 596.360535,592.853455 595.863586,592.437317 
	C595.240356,592.314392 594.617065,592.191467 593.375427,591.715210 
M672.499207,742.615112 
	C675.665527,742.613831 678.833618,742.680237 681.997986,742.601318 
	C738.497986,741.192322 782.452942,716.741272 813.653442,669.859253 
	C830.455017,644.613037 838.464966,616.229980 839.578247,586.018921 
	C840.387207,564.065613 836.917358,542.756897 826.107056,523.339233 
	C804.963989,485.361664 770.905457,468.086334 728.910339,467.236481 
	C671.938293,466.083496 614.925598,466.933258 557.930298,466.949341 
	C544.562439,466.953094 536.634521,474.068268 534.921143,487.532440 
	C533.603333,497.888184 536.254883,507.510834 541.404968,516.283264 
	C554.478027,538.551331 574.720154,548.804810 599.991760,549.076172 
	C636.318298,549.466309 672.651428,549.210266 708.981689,549.283142 
	C735.880920,549.337158 752.857483,567.581787 751.131042,594.477966 
	C748.653503,633.073975 717.877319,662.021667 679.268494,662.028442 
	C599.941711,662.042419 520.614746,661.994873 441.288452,662.185364 
	C437.976166,662.193298 433.618927,663.378540 431.521790,665.651428 
	C410.169769,688.792664 389.183624,712.271484 368.104126,735.664062 
	C366.282166,737.685913 364.525299,739.766479 362.046417,742.614563 
	C465.967743,742.614563 568.733582,742.614563 672.499207,742.615112 
M215.504318,896.429138 
	C228.501968,896.442200 241.499619,896.457092 254.497269,896.467773 
	C265.181152,896.476501 274.298279,892.787109 280.276489,883.772278 
	C285.973663,875.181274 288.831329,865.342957 289.376556,855.048706 
	C289.754486,847.913940 286.505188,843.202209 279.710114,840.980652 
	C275.671234,839.660156 271.280487,839.083252 267.012970,838.869080 
	C259.864655,838.510437 252.680817,838.891357 245.527145,838.594360 
	C242.067230,838.450745 237.621536,837.907532 238.184448,833.086975 
	C239.381195,822.838562 241.982376,816.800537 252.956848,816.997253 
	C266.116760,817.233154 279.286896,817.150513 292.446259,816.887512 
	C294.361237,816.849243 297.161499,815.520935 297.967957,813.967346 
	C300.614166,808.869141 302.530334,803.392029 304.779175,797.934143 
	C303.815765,797.613159 303.370178,797.335144 302.924438,797.334839 
	C284.928162,797.323486 266.922791,796.989014 248.938599,797.460693 
	C235.177185,797.821777 225.155838,805.910583 220.760666,818.988464 
	C219.279907,823.394592 218.050064,827.893127 216.886307,832.396179 
	C212.982117,847.503296 219.765900,856.510376 235.340225,856.993835 
	C236.838608,857.040344 238.339508,857.009399 239.839233,857.008972 
	C246.671005,857.007324 253.505264,856.892761 260.333588,857.044739 
	C264.080627,857.128113 267.389008,858.290466 267.651642,862.860413 
	C268.198639,872.380432 262.696289,878.352234 253.053238,878.410339 
	C239.060608,878.494629 225.065277,878.438354 211.074188,878.232178 
	C208.112305,878.188538 206.518799,879.180969 205.380829,881.823486 
	C203.366394,886.501160 201.093079,891.067383 198.580734,896.420349 
	C204.289505,896.420349 209.398193,896.420349 215.504318,896.429138 
M625.130310,801.510315 
	C621.092407,806.032715 615.945435,809.993774 613.299744,815.220825 
	C610.056091,821.629333 608.379700,828.993286 606.970947,836.130676 
	C604.799316,847.133179 609.911255,854.044128 621.001404,856.198914 
	C623.430542,856.671021 625.940430,856.881897 628.417847,856.922058 
	C635.577759,857.038147 642.744141,856.870239 649.899719,857.086304 
	C653.740173,857.202332 657.314514,858.105347 657.222717,863.233398 
	C657.054626,872.628113 651.609741,878.182861 642.341125,878.203613 
	C628.851135,878.233826 615.360535,878.143982 601.871826,878.275879 
	C600.312561,878.291016 597.927185,878.958801 597.354492,880.064453 
	C594.789673,885.016602 592.742432,890.236816 590.215332,896.032410 
	C597.587280,896.032410 604.219910,896.045654 610.852417,896.029663 
	C623.341919,895.999512 635.856201,896.424561 648.313293,895.768433 
	C658.941040,895.208679 666.898010,889.377686 671.202026,879.644958 
	C673.872070,873.606995 675.614136,867.111084 677.304077,860.697144 
	C680.858093,847.209045 675.366577,839.689209 661.439209,838.964539 
	C652.799255,838.515015 644.131958,838.613647 635.482605,838.306885 
	C632.434753,838.198853 629.389954,837.677307 628.728455,833.764832 
	C627.218384,824.833435 633.571960,817.150635 642.718323,817.080750 
	C655.208435,816.985229 667.702454,817.156067 680.187561,816.882996 
	C682.361694,816.835449 685.591431,815.743408 686.453735,814.129456 
	C689.213867,808.963623 691.090820,803.325928 693.565002,797.239685 
	C676.255493,797.239685 659.931641,796.899475 643.635071,797.417725 
	C637.645874,797.608154 631.721191,799.827942 625.130310,801.510315 
M357.490295,890.014709 
	C360.278503,885.753418 363.994354,881.825195 365.668030,877.163757 
	C369.537659,866.386230 372.698853,855.327698 375.623535,844.244873 
	C378.796783,832.220215 372.286163,823.882202 359.850342,823.317322 
	C358.687164,823.264465 357.519897,823.299927 356.354523,823.296875 
	C345.887878,823.269470 335.421143,823.262207 324.954620,823.209839 
	C315.128876,823.160767 309.676331,827.372009 306.830505,836.947266 
	C299.531952,861.504639 292.143250,886.035278 284.797363,910.578613 
	C284.060364,913.040833 283.370422,915.517212 282.545929,918.378113 
	C288.323975,918.378113 293.328705,918.126892 298.292664,918.468079 
	C301.503845,918.688782 302.617493,917.368835 303.379181,914.566467 
	C305.156250,908.028992 307.208374,901.566284 309.126038,895.150208 
	C311.346130,895.648071 313.106689,896.365112 314.875092,896.384888 
	C323.696228,896.483582 332.595215,897.086548 341.313873,896.124939 
	C346.668060,895.534485 351.747375,892.451111 357.490295,890.014709 
M709.908997,823.210754 
	C700.898499,823.855408 696.631287,829.376221 694.273865,837.552917 
	C687.085754,862.485046 679.608765,887.333923 672.265442,912.221436 
	C671.731079,914.032532 671.368408,915.894348 670.812317,918.204224 
	C676.446533,918.204224 681.434937,918.007874 686.398010,918.277893 
	C689.368530,918.439514 690.429932,917.210999 691.151855,914.569519 
	C692.937622,908.036255 695.006042,901.580200 696.682190,896.017822 
	C706.619202,896.017822 715.714050,896.047852 724.808716,896.011047 
	C739.892944,895.949951 749.185364,889.180115 753.700623,874.720215 
	C756.776306,864.870483 759.668091,854.960632 762.475647,845.030640 
	C766.265259,831.627441 760.162537,823.497437 746.184448,823.324402 
	C734.385071,823.178406 722.583374,823.220337 709.908997,823.210754 
M1042.937012,892.509216 
	C1044.144897,888.236938 1045.352661,883.964600 1046.704346,879.183594 
	C1033.004883,879.183594 1019.876892,879.158691 1006.749023,879.200195 
	C1003.263977,879.211182 1000.254822,878.609497 1000.051758,874.353821 
	C999.821533,869.527588 1001.785583,867.590027 1006.796265,867.572754 
	C1017.948975,867.534302 1029.102539,867.633179 1040.254761,867.548218 
	C1048.916870,867.482239 1052.751099,864.679565 1055.358643,856.635437 
	C1056.791992,852.213562 1058.196411,847.768066 1059.301514,843.256714 
	C1062.160156,831.586975 1055.901123,823.442322 1043.888672,823.256165 
	C1034.569824,823.111694 1025.242310,823.069702 1015.926270,823.297119 
	C1002.823486,823.617065 993.885132,830.232483 989.903015,842.715881 
	C986.467407,853.486084 983.275208,864.343445 980.330322,875.258118 
	C977.148315,887.051270 983.498535,895.686584 995.678040,895.903625 
	C1009.987854,896.158569 1024.308350,895.945801 1038.620850,895.718689 
	C1039.986694,895.697021 1041.328125,894.134033 1042.937012,892.509216 
M817.058472,840.758118 
	C822.061340,842.231628 822.925232,843.904846 821.345337,849.212463 
	C818.071289,860.211914 814.755981,871.198975 811.500610,882.203918 
	C810.201294,886.596741 809.015747,891.023193 807.658447,895.861816 
	C813.613098,895.861816 818.940125,896.049011 824.236450,895.728760 
	C825.542786,895.649719 827.509949,894.150940 827.886780,892.913208 
	C832.972412,876.209412 838.061523,859.499329 842.660217,842.657104 
	C845.530029,832.146606 840.650940,824.425232 830.239624,823.684570 
	C820.258728,822.974365 810.171448,823.760193 799.735229,823.893616 
	C801.977539,816.057495 804.548584,807.072449 807.362000,797.240601 
	C802.064148,797.240601 797.443420,797.437317 792.848633,797.176880 
	C789.314148,796.976501 787.650757,798.069580 786.619446,801.695984 
	C781.522095,819.619568 776.077637,837.444397 770.767456,855.307495 
	C766.792725,868.678101 762.835815,882.053955 758.728821,895.906982 
	C764.004028,895.906982 768.819214,895.593445 773.572266,896.002686 
	C777.625671,896.351685 778.919250,894.533203 779.906799,891.008301 
	C783.810974,877.073059 787.963135,863.206543 792.105652,849.339111 
	C794.068970,842.766663 797.257874,840.480713 804.150085,840.488831 
	C808.147095,840.493530 812.143921,840.618286 817.058472,840.758118 
M846.208313,868.690063 
	C845.636414,870.776550 845.013184,872.850525 844.501038,874.951599 
	C841.543945,887.082642 847.790283,895.642883 860.254639,895.867798 
	C874.414978,896.123352 888.585144,895.936279 902.748291,895.744263 
	C903.954651,895.727905 905.817200,894.472778 906.217896,893.372009 
	C907.843445,888.906860 909.016846,884.277100 910.522949,879.142578 
	C896.877502,879.142578 883.910156,879.174744 870.943176,879.121887 
	C867.310242,879.107056 864.041809,878.148315 864.232788,873.628235 
	C864.404663,869.560730 865.888489,867.192566 870.970337,867.367493 
	C882.617371,867.768372 894.293945,867.485291 905.954163,867.257874 
	C911.526672,867.149231 916.085144,864.813904 918.037903,859.243042 
	C919.909180,853.904602 921.683411,848.491272 922.923462,842.980957 
	C925.630615,830.951416 919.601074,823.467224 907.217957,823.280457 
	C898.221191,823.144714 889.218933,823.181946 880.221741,823.317627 
	C866.993958,823.517029 857.888489,830.382080 853.942383,843.070618 
	C851.373901,851.329468 848.962219,859.637085 846.208313,868.690063 
M390.407715,896.181396 
	C401.234375,896.239807 412.063263,896.462097 422.887115,896.314514 
	C435.950989,896.136414 445.728271,888.702026 449.569733,876.166260 
	C452.688019,865.990417 455.663361,855.768250 458.531830,845.518982 
	C462.325043,831.965393 456.131195,823.547668 442.069000,823.250366 
	C432.575653,823.049622 423.071136,823.039612 413.578033,823.243286 
	C400.291992,823.528259 390.892548,830.450378 387.050598,842.807495 
	C383.742920,853.446167 380.646118,864.154297 377.672974,874.891846 
	C374.584930,886.044312 378.467102,892.768677 390.407715,896.181396 
M530.042725,892.486267 
	C532.247375,893.598511 534.397644,895.526245 536.666321,895.677368 
	C545.119080,896.240417 553.610291,896.259399 562.088501,896.349548 
	C562.821655,896.357361 564.012573,895.533081 564.232239,894.851013 
	C565.822571,889.912476 567.217712,884.911072 568.803894,879.487549 
	C563.257202,879.487549 558.613708,879.588074 553.976379,879.462158 
	C548.125244,879.303223 546.463257,877.079041 548.132202,871.462524 
	C550.880249,862.214417 553.935608,853.055969 556.575806,843.778442 
	C557.334839,841.111450 558.627991,840.420471 561.135620,840.473083 
	C566.460083,840.584839 571.790710,840.550598 577.114685,840.413086 
	C578.310852,840.382202 580.281250,839.973389 580.549194,839.244080 
	C582.398071,834.210510 583.890137,829.045898 585.719604,823.213257 
	C577.745850,823.213257 570.684082,823.213257 563.123535,823.213257 
	C564.080078,819.593140 564.872070,816.563965 565.681885,813.539551 
	C566.469788,810.596741 567.275818,807.658875 568.169678,804.365723 
	C566.335144,804.365723 565.180542,804.359009 564.026001,804.366760 
	C550.733765,804.455872 547.778259,806.459656 544.195862,819.062317 
	C543.143677,822.763855 541.317749,823.516602 537.856201,823.499939 
	C535.420776,823.488220 531.933472,821.581787 530.650574,825.722046 
	C529.191833,830.430054 527.779846,835.152527 526.235596,840.237000 
	C530.131042,840.469177 533.484436,840.669006 537.277588,840.895081 
	C533.724243,852.974121 530.322083,864.445190 526.981750,875.934265 
	C525.320557,881.647888 525.433777,887.130432 530.042725,892.486267 
M479.940002,829.418152 
	C476.770020,834.205750 472.406891,838.594727 470.649353,843.854309 
	C464.931732,860.964966 460.166931,878.394043 454.920929,896.086426 
	C461.831390,896.086426 468.226837,896.086426 474.895233,896.086426 
	C479.355591,880.966309 483.717529,865.975464 488.212128,851.024475 
	C490.688782,842.785889 493.607727,840.708740 502.306396,840.573853 
	C507.301117,840.496399 512.305725,840.647522 517.286377,840.359131 
	C518.560059,840.285400 520.458008,839.201294 520.872192,838.122009 
	C522.640442,833.514526 523.960327,828.735107 525.677490,823.275391 
	C516.594055,823.275391 508.165497,823.381104 499.740936,823.242798 
	C492.683777,823.126953 486.253632,824.820129 479.940002,829.418152 
M942.350586,880.096802 
	C945.344299,870.051331 948.337708,860.005737 951.331787,849.960449 
	C953.254456,843.509521 957.040161,840.634277 963.702393,840.596436 
	C969.193726,840.565247 974.689209,840.666565 980.173340,840.458984 
	C981.388550,840.412903 983.288696,839.587036 983.636108,838.657593 
	C985.413696,833.902771 986.786011,828.996460 988.539856,823.374512 
	C979.596313,823.374512 971.490845,823.401428 963.385620,823.368713 
	C947.918579,823.306335 937.534973,830.963379 933.071472,845.792603 
	C930.769592,853.440552 928.466125,861.088318 926.217896,868.752075 
	C923.617615,877.615601 921.077271,886.496704 918.398865,895.757690 
	C925.220520,895.757690 931.316589,895.757690 937.629517,895.757690 
	C939.152771,890.701355 940.635193,885.780579 942.350586,880.096802 
z"/>
<path fill="#FCFCFC" opacity="1.000000" stroke="none" 
	d="
M671.999268,742.614868 
	C568.733582,742.614563 465.967743,742.614563 362.046417,742.614563 
	C364.525299,739.766479 366.282166,737.685913 368.104126,735.664062 
	C389.183624,712.271484 410.169769,688.792664 431.521790,665.651428 
	C433.618927,663.378540 437.976166,662.193298 441.288452,662.185364 
	C520.614746,661.994873 599.941711,662.042419 679.268494,662.028442 
	C717.877319,662.021667 748.653503,633.073975 751.131042,594.477966 
	C752.857483,567.581787 735.880920,549.337158 708.981689,549.283142 
	C672.651428,549.210266 636.318298,549.466309 599.991760,549.076172 
	C574.720154,548.804810 554.478027,538.551331 541.404968,516.283264 
	C536.254883,507.510834 533.603333,497.888184 534.921143,487.532440 
	C536.634521,474.068268 544.562439,466.953094 557.930298,466.949341 
	C614.925598,466.933258 671.938293,466.083496 728.910339,467.236481 
	C770.905457,468.086334 804.963989,485.361664 826.107056,523.339233 
	C836.917358,542.756897 840.387207,564.065613 839.578247,586.018921 
	C838.464966,616.229980 830.455017,644.613037 813.653442,669.859253 
	C782.452942,716.741272 738.497986,741.192322 681.997986,742.601318 
	C678.833618,742.680237 675.665527,742.613831 671.999268,742.614868 
z"/>
<path fill="#EBB01D" opacity="1.000000" stroke="none" 
	d="
M459.892578,589.223450 
	C437.498596,572.742798 424.869141,550.076538 419.108917,523.417053 
	C412.944977,494.889313 415.976379,466.932373 426.471558,439.212463 
	C433.150269,434.698914 435.587646,429.095703 433.856659,421.804962 
	C433.856659,421.804962 433.886993,421.922882 434.183563,421.822083 
	C436.855835,419.411133 439.630951,417.385437 441.521820,414.730072 
	C445.149017,409.636353 448.081146,404.050354 451.662292,398.920380 
	C455.220856,393.822754 459.222778,389.034637 463.318420,383.936523 
	C468.437164,379.486816 473.208282,375.141785 478.109955,370.949402 
	C491.215210,359.740448 506.144165,351.586823 522.357910,344.952759 
	C535.818420,340.431702 548.806458,335.492371 563.149658,336.295807 
	C570.742920,344.728760 570.552917,344.612823 564.953003,353.790710 
	C562.793457,357.330078 560.803406,361.122986 563.204102,365.911072 
	C564.677307,368.849243 564.489441,372.640442 564.948364,376.061920 
	C565.571045,380.703674 565.423340,385.589417 566.907166,389.925140 
	C567.881226,392.771362 567.134705,393.918762 565.742249,395.946167 
	C564.364441,397.952118 562.637695,401.014069 563.268433,402.859283 
	C565.111206,408.250275 561.173584,409.283936 558.151062,410.669922 
	C550.400818,414.223907 542.084229,416.711334 534.736145,420.920502 
	C528.919739,424.252350 524.203552,429.505066 518.694702,434.067322 
	C513.909363,439.686951 508.915527,444.808472 505.070221,450.681915 
	C499.681610,458.912689 495.929901,467.988007 494.821838,478.349060 
	C494.147614,485.810455 493.628479,492.899109 492.708252,499.992371 
	C488.765656,500.217621 484.491821,501.301453 485.322205,505.211670 
	C486.394440,510.260559 483.983948,513.160828 481.939575,516.902832 
	C480.519226,519.502686 480.379486,522.897766 480.049713,525.978455 
	C479.304749,532.937622 478.779510,539.920715 478.209412,546.897705 
	C478.116058,548.040039 477.853058,549.414917 478.341461,550.318604 
	C481.640533,556.422546 481.826385,562.963806 480.905396,569.523315 
	C480.395355,573.155701 479.430908,576.913269 477.768188,580.150574 
	C475.269958,585.014465 475.194122,584.914429 480.593903,586.187439 
	C482.504761,586.637939 485.535675,589.414429 485.292572,590.522888 
	C484.696899,593.238159 483.909271,596.657715 479.529358,596.792786 
	C473.529144,596.977905 469.551208,593.067810 464.833649,590.560425 
	C463.364685,589.779724 461.549347,589.650818 459.892578,589.223450 
z"/>
</svg>
